<?xml version="1.0" standalone="no"?>
<!DOCTYPE svg PUBLIC "-//W3C//DTD SVG 20010904//EN"
 "http://www.w3.org/TR/2001/REC-SVG-20010904/DTD/svg10.dtd">
<svg version="1.0" xmlns="http://www.w3.org/2000/svg"
 width="260.000000pt" height="260.000000pt" viewBox="0 0 260.000000 260.000000"
 preserveAspectRatio="xMidYMid meet">
<metadata>
Created by potrace 1.11, written by Peter Selinger 2001-2013
</metadata>
<g transform="translate(0.000000,260.000000) scale(0.100000,-0.100000)"
fill="#000000" stroke="none">
<path d="M0 1300 l0 -1300 1300 0 1300 0 0 1300 0 1300 -1300 0 -1300 0 0
-1300z m559 198 c29 -139 60 -284 69 -322 l15 -70 27 105 c15 57 45 165 65
239 20 74 47 171 59 215 l21 80 111 3 111 3 22 -83 c38 -149 131 -537 132
-555 0 -10 29 117 63 282 34 165 66 312 69 328 l7 27 106 0 c96 0 105 -2 100
-17 -5 -17 -135 -511 -200 -758 l-31 -120 -117 -3 c-65 -1 -118 0 -118 4 0 3
-33 137 -74 298 -41 160 -76 302 -79 316 l-4 25 -2 -25 c0 -14 -11 -59 -22
-100 -12 -41 -47 -174 -79 -295 l-57 -220 -120 -3 -121 -3 -20 78 c-57 212
-212 811 -212 817 0 3 51 6 113 6 l113 0 53 -252z m1538 237 c118 -28 183 -96
183 -191 0 -89 -25 -131 -109 -185 -26 -17 -38 -29 -28 -29 30 0 92 -37 125
-74 105 -120 39 -321 -126 -382 -38 -14 -91 -18 -274 -22 l-228 -4 0 451 0
451 198 0 c138 0 216 -5 259 -15z"/>
<path d="M1850 1490 l0 -100 55 0 c96 0 155 40 155 103 0 65 -49 97 -150 97
l-60 0 0 -100z"/>
<path d="M1850 1120 l0 -110 69 0 c77 0 115 11 148 42 51 48 33 136 -32 164
-20 8 -67 14 -110 14 l-75 0 0 -110z"/>
</g>
</svg>
